# xmcd
#
# Track frame offsets: 
#        150
#        14295
#        33322
#        50250
#        68865
#        90295
#        107107
#        122455
#        136547
#        152325
#
# Disc length: 2291 seconds
#
# Revision: 2
# Processed by: cddbd v1.5.2PL0 Copyright (c) Steve Scherf et al.
# Submitted via: ExactAudioCopy v1.0b2
#
DISCID=6908f10a
DTITLE=The Edgar Winter Group and Rick Derringer - Take 2
DYEAR=2005
DGENRE=Blues Rock
TTITLE0=Edgar Winter Group - Free Ride
TTITLE1=Edgar Winter Group - Easy Street
TTITLE2=Edgar Winter Group - Keep Playin' Thar Rock and Roll
TTITLE3=Edgar Winter Group - Tobacco Road
TTITLE4=Edgar Winter Group - Frankenstein
TTITLE5=Rick Derringer - Rock and Roll Hoochie Koo
TTITLE6=Rick Derringer - Teenage Love Affair
TTITLE7=Rick Derringer - Hang On Sloopy
TTITLE8=Rick Derringer - Let Me In
TTITLE9=Rick Derringer - Slide On Over Slinky
EXTD=1970 - 1976
EXTT0=
EXTT1=
EXTT2=
EXTT3=
EXTT4=
EXTT5=
EXTT6=
EXTT7=
EXTT8=
EXTT9=
PLAYORDER=
